HIERARCHY
ROOT Hips
{
    OFFSET 0.000000 0.000000 0.000000
    CHANNELS 6 Xposition Yposition Zposition Zrotation Xrotation Yrotation
    JOINT Spine
    {
        OFFSET -0.000000 14.517291 0.000000
        CHANNELS 3 Zrotation Xrotation Yrotation
        JOINT Spine1
        {
            OFFSET -0.000000 37.558300 0.000000
            CHANNELS 3 Zrotation Xrotation Yrotation
            JOINT Neck
            {
                OFFSET -0.000000 37.404057 3.400369
                CHANNELS 3 Zrotation Xrotation Yrotation
                JOINT Head
                {
                    OFFSET -0.000000 24.785618 -3.540803
                    CHANNELS 3 Zrotation Xrotation Yrotation
                    End Site
                    {
                        OFFSET -0.000000 35.408028 0.000000
                    }
                }
            }
            JOINT LeftShoulder
            {
                OFFSET 6.992933 33.973492 -0.192664
                CHANNELS 3 Zrotation Xrotation Yrotation
                JOINT LeftArm
                {
                    OFFSET 21.527611 0.000000 0.000000
                    CHANNELS 3 Zrotation Xrotation Yrotation
                    JOINT LeftForeArm
                    {
                        OFFSET 56.353916 0.000000 0.000000
                        CHANNELS 3 Zrotation Xrotation Yrotation
                        JOINT LeftHand
                        {
                            OFFSET 47.774071 0.000000 0.000000
                            CHANNELS 3 Zrotation Xrotation Yrotation
                            End Site
                            {
                                OFFSET 26.556021 0.000000 0.000000
                            }
                        }
                    }
                }
            }
            JOINT RightShoulder
            {
                OFFSET -7.065357 33.973492 -0.192664
                CHANNELS 3 Zrotation Xrotation Yrotation
                JOINT RightArm
                {
                    OFFSET -21.527611 0.000000 0.000000
                    CHANNELS 3 Zrotation Xrotation Yrotation
                    JOINT RightForeArm
                    {
                        OFFSET -56.353916 0.000000 0.000000
                        CHANNELS 3 Zrotation Xrotation Yrotation
                        JOINT RightHand
                        {
                            OFFSET -47.774071 0.000000 0.000000
                            CHANNELS 3 Zrotation Xrotation Yrotation
                            End Site
                            {
                                OFFSET -26.556021 0.000000 0.000000
                            }
                        }
                    }
                }
            }
        }
    }
    JOINT LeftUpLeg
    {
        OFFSET 17.704014 0.000000 0.000000
        CHANNELS 3 Zrotation Xrotation Yrotation
        JOINT LeftLeg
        {
            OFFSET -0.000000 -81.181816 0.000000
            CHANNELS 3 Zrotation Xrotation Yrotation
            JOINT LeftFoot
            {
                OFFSET -0.000000 -62.821102 0.000000
                CHANNELS 3 Zrotation Xrotation Yrotation
                JOINT LeftToeBase
                {
                    OFFSET -0.000000 -11.507608 26.556021
                    CHANNELS 3 Zrotation Xrotation Yrotation
                    End Site
                    {
                        OFFSET -0.000000 0.000000 7.081605
                    }
                }
            }
        }
    }
    JOINT RightUpLeg
    {
        OFFSET -17.704014 0.000000 0.000000
        CHANNELS 3 Zrotation Xrotation Yrotation
        JOINT RightLeg
        {
            OFFSET -0.000000 -81.181816 0.000000
            CHANNELS 3 Zrotation Xrotation Yrotation
            JOINT RightFoot
            {
                OFFSET -0.000000 -62.821102 0.000000
                CHANNELS 3 Zrotation Xrotation Yrotation
                JOINT RightToeBase
                {
                    OFFSET -0.000000 -11.507608 26.556021
                    CHANNELS 3 Zrotation Xrotation Yrotation
                    End Site
                    {
                        OFFSET -0.000000 0.000000 7.081605
                    }
                }
            }
        }
    }
}
MOTION
Frames:    9
Frame Time:    0.008333
13.160419    159.400146    -88.118134    -2.991097    3.477374    25.349401    -0.553979    -0.092064    -5.472589    -11.875088    -3.323348    -2.169776    7.672244    10.714036    -8.962328    14.930491    -9.401185    -6.408903    14.005051    -4.729233    -15.670037    -20.661676    -32.355164    -30.836416    -15.095545    -42.131226    -86.234390    -40.197163    -39.954025    -44.256390    -17.940472    0.224098    -10.473569    20.317907    17.235821    10.805922    18.986130    -21.229410    8.284699    -31.633572    -41.273960    68.236565    11.035619    -4.771797    -12.363481    -6.885929    25.334791    -28.785917    8.171576    -24.590815    41.402630    0.000000    0.000000    0.000000    -9.681766    -29.469463    2.674235    8.558687    15.429546    -8.990586    0.644756    16.177059    -17.633240    0.000000    0.000000    0.000000    
13.080186    159.454834    -88.108322    -2.985929    3.494156    25.709196    -0.585407    -0.081543    -5.668213    -11.940075    -3.369498    -2.241730    7.786527    10.833632    -9.002563    14.887467    -9.467546    -6.449575    14.064010    -4.614014    -15.818859    -20.686174    -32.329300    -30.876175    -15.081905    -42.181202    -86.233887    -40.223019    -39.984127    -44.262230    -17.857298    0.233954    -10.464187    20.359959    17.294380    10.742424    18.895750    -21.228918    8.315583    -31.615648    -41.232155    68.143501    11.247967    -4.681156    -12.170690    -7.220000    24.923662    -27.907995    8.151572    -24.443331    41.575985    0.000000    0.000000    0.000000    -9.816687    -29.399132    2.512323    8.540341    15.426858    -8.988714    0.699155    16.139921    -17.822271    0.000000    0.000000    0.000000    
13.016492    159.512131    -88.099380    -2.973755    3.502259    26.079454    -0.620640    -0.075825    -5.871240    -11.965847    -3.381036    -2.311362    7.843617    10.915944    -9.031806    14.857177    -9.519081    -6.477391    14.068026    -4.528923    -15.952583    -20.694353    -32.283474    -30.908762    -15.070969    -42.221584    -86.230415    -40.260765    -39.996269    -44.283768    -17.825346    0.236120    -10.481859    19.473219    17.123680    10.547140    18.895750    -21.228918    8.315583    -31.615648    -41.232155    68.143501    11.425604    -4.627103    -11.406107    -7.282917    24.685207    -27.479109    8.141420    -24.255705    41.596901    0.000000    0.000000    0.000000    -9.968572    -29.309511    2.322375    8.526293    15.420391    -9.019874    0.738540    16.102707    -17.974241    0.000000    0.000000    0.000000    
12.949573    159.560471    -88.092323    -2.983212    3.513203    26.446190    -0.625593    -0.075519    -6.060492    -12.006119    -3.391016    -2.376678    7.907273    10.940286    -9.070051    14.807848    -9.515068    -6.530425    14.081948    -4.449286    -16.071276    -20.711367    -32.233871    -30.975828    -15.064734    -42.257534    -86.207840    -40.277493    -40.005039    -44.323708    -17.791071    0.239136    -10.528490    20.404135    17.275743    10.718151    18.868368    -21.222645    8.333529    -31.665672    -41.232101    68.068306    11.614674    -4.598834    -10.602226    -7.296588    24.533499    -27.208584    7.821898    -24.330240    41.682911    0.000000    0.000000    0.000000    -10.098269    -29.235107    2.141675    8.507687    15.415987    -9.066315    0.782334    16.076017    -18.105526    0.000000    0.000000    0.000000    
12.888563    159.605957    -88.089165    -2.993906    3.519680    26.812426    -0.626383    -0.066561    -6.241920    -12.035193    -3.398474    -2.438795    7.958401    10.927351    -9.107116    14.749387    -9.481865    -6.590031    14.084914    -4.391096    -16.190521    -20.701799    -32.101070    -31.021502    -15.018001    -42.364052    -86.183876    -40.343258    -40.033417    -44.380169    -17.774822    0.231279    -10.593387    20.431759    17.269684    10.710425    18.853920    -21.160576    8.333212    -31.697479    -41.180721    68.010803    11.817407    -4.575457    -9.851045    -7.385409    24.356457    -26.872025    7.747763    -24.261497    41.772076    0.000000    0.000000    0.000000    -10.229007    -29.158340    1.940888    8.495663    15.420620    -9.119376    0.796846    16.034597    -18.210135    0.000000    0.000000    0.000000    
12.835378    159.645737    -88.105835    -3.003520    3.535409    27.154442    -0.597031    -0.056529    -6.392836    -12.124288    -3.396953    -2.491631    8.016505    10.878380    -9.169586    14.731314    -9.426808    -6.672869    14.121901    -4.364358    -16.300383    -20.726690    -31.962650    -31.102598    -14.939054    -42.454620    -86.122772    -40.392056    -40.026390    -44.418583    -17.711510    0.217941    -10.698334    20.436911    17.256187    10.708635    18.853800    -21.078173    8.358580    -31.737461    -41.122047    67.954819    11.986606    -4.596884    -8.536304    -7.192319    24.326258    -27.061909    7.630888    -24.192837    41.722744    0.000000    0.000000    0.000000    -10.363276    -29.104361    1.773329    8.489067    15.421650    -9.217720    0.831689    16.020435    -18.293077    0.000000    0.000000    0.000000    
12.781981    159.679138    -88.123741    -3.016464    3.542623    27.515234    -0.603570    -0.021578    -6.557879    -12.110506    -3.425278    -2.549303    7.963005    10.788372    -9.211393    14.787581    -9.292036    -6.724851    14.083589    -4.339756    -16.412170    -20.732384    -31.801134    -31.170252    -14.898900    -42.549824    -86.091911    -40.445457    -40.057228    -44.457565    -17.719795    0.223034    -10.794724    19.541965    17.056696    10.537272    18.853800    -21.078173    8.358580    -31.737461    -41.122047    67.954819    12.170613    -4.569717    -7.901292    -7.285408    24.119858    -26.645861    7.524532    -24.109924    41.753593    0.000000    0.000000    0.000000    -10.496406    -29.037783    1.587142    8.474571    15.426273    -9.307299    0.860580    15.984308    -18.371515    0.000000    0.000000    0.000000    
12.738724    159.707626    -88.147484    -3.017537    3.564059    27.849226    -0.665664    0.002250    -6.702019    -12.002213    -3.455712    -2.597338    7.867508    10.774580    -9.266337    14.820605    -9.243508    -6.777141    13.982058    -4.293384    -16.516836    -20.733143    -31.638611    -31.249071    -14.847544    -42.650978    -86.043106    -40.511547    -40.071400    -44.516617    -17.794123    0.217741    -10.860549    20.489004    17.212839    10.677027    18.891699    -20.981247    8.407943    -31.817894    -41.102169    67.967560    12.336570    -4.541781    -7.116658    -7.359039    23.914894    -26.267103    7.469777    -23.986542    41.714958    0.000000    0.000000    0.000000    -10.574819    -29.025311    1.334018    8.306417    15.527115    -9.405948    0.918032    15.937716    -18.307030    0.000000    0.000000    0.000000    
12.696630    159.732178    -88.180832    -3.020103    3.594609    28.175240    -0.709202    -0.008797    -6.836228    -11.956978    -3.441193    -2.639171    7.835894    10.748466    -9.324286    14.833702    -9.198301    -6.840798    13.936163    -4.257337    -16.624863    -20.753099    -31.498734    -31.334423    -14.804358    -42.735737    -85.999832    -40.557430    -40.095570    -44.538078    -17.809635    0.189910    -10.923002    20.520643    17.217089    10.630950    18.889492    -20.915735    8.430891    -31.858311    -41.054062    67.902657    12.487542    -4.524569    -6.280899    -7.389946    23.743788    -25.975142    7.403541    -23.887468    41.687588    0.000000    0.000000    0.000000    -10.717603    -28.993736    1.184269    8.291035    15.543302    -9.463889    0.971620    15.900122    -18.420795    0.000000    0.000000    0.000000    
